<?xml version="1.0" encoding="UTF-8" standalone="no"?>
<!-- Created with Inkscape (http://www.inkscape.org/) -->

<svg
   xmlns:dc="http://purl.org/dc/elements/1.1/"
   xmlns:cc="http://creativecommons.org/ns#"
   xmlns:rdf="http://www.w3.org/1999/02/22-rdf-syntax-ns#"
   xmlns:svg="http://www.w3.org/2000/svg"
   xmlns="http://www.w3.org/2000/svg"
   xmlns:sodipodi="http://sodipodi.sourceforge.net/DTD/sodipodi-0.dtd"
   xmlns:inkscape="http://www.inkscape.org/namespaces/inkscape"
   width="1920"
   height="1080"
   viewBox="0 0 508.00001 285.74999"
   version="1.1"
   id="svg8"
   inkscape:version="0.92.1 r15371"
   sodipodi:docname="quiz-1.svg"
   enable-background="new">
  <defs
     id="defs2">
    <circle
       style="color:#000000;clip-rule:nonzero;display:inline;overflow:visible;visibility:visible;opacity:1;isolation:auto;mix-blend-mode:normal;color-interpolation:sRGB;color-interpolation-filters:linearRGB;solid-color:#000000;solid-opacity:1;vector-effect:none;fill:none;fill-opacity:0.49803922;fill-rule:evenodd;stroke:none;stroke-width:1.78560388;stroke-linecap:round;stroke-linejoin:round;stroke-miterlimit:4;stroke-dasharray:none;stroke-dashoffset:0;stroke-opacity:1;marker:none;color-rendering:auto;image-rendering:auto;shape-rendering:auto;text-rendering:auto;enable-background:accumulate"
       id="path4598-3-6-1-7-5-9"
       cx="-129.12611"
       cy="-130.7997"
       r="84.536263"
       transform="rotate(172.41102)" />
    <circle
       style="color:#000000;clip-rule:nonzero;display:inline;overflow:visible;visibility:visible;opacity:1;isolation:auto;mix-blend-mode:normal;color-interpolation:sRGB;color-interpolation-filters:linearRGB;solid-color:#000000;solid-opacity:1;vector-effect:none;fill:none;fill-opacity:0.49803922;fill-rule:evenodd;stroke:none;stroke-width:1.85503721;stroke-linecap:round;stroke-linejoin:round;stroke-miterlimit:4;stroke-dasharray:none;stroke-dashoffset:0;stroke-opacity:1;marker:none;color-rendering:auto;image-rendering:auto;shape-rendering:auto;text-rendering:auto;enable-background:accumulate"
       id="path4598-3-6-1-8-7-7"
       cx="54.610889"
       cy="269.74374"
       r="87.823456"
       transform="matrix(-0.43091697,0.90239158,0.90239158,0.43091697,0,0)" />
  </defs>
  <sodipodi:namedview
     id="base"
     pagecolor="#222222"
     bordercolor="#666666"
     borderopacity="1.0"
     inkscape:pageopacity="0"
     inkscape:pageshadow="2"
     inkscape:zoom="0.50123559"
     inkscape:cx="799.64879"
     inkscape:cy="519.51381"
     inkscape:document-units="mm"
     inkscape:current-layer="layer3"
     showgrid="false"
     units="px"
     inkscape:window-width="1920"
     inkscape:window-height="1024"
     inkscape:window-x="0"
     inkscape:window-y="0"
     inkscape:window-maximized="1" />
  <metadata
     id="metadata5">
    <rdf:RDF>
      <cc:Work
         rdf:about="">
        <dc:format>image/svg+xml</dc:format>
        <dc:type
           rdf:resource="http://purl.org/dc/dcmitype/StillImage" />
        <dc:title></dc:title>
      </cc:Work>
    </rdf:RDF>
  </metadata>
  <g
     inkscape:label="Circles"
     inkscape:groupmode="layer"
     id="layer1"
     transform="translate(0,-11.25001)"
     style="display:inline"
     sodipodi:insensitive="true">
    <circle
       style="color:#000000;clip-rule:nonzero;display:inline;overflow:visible;visibility:visible;opacity:1;isolation:auto;mix-blend-mode:normal;color-interpolation:sRGB;color-interpolation-filters:linearRGB;solid-color:#000000;solid-opacity:1;vector-effect:none;fill:#42affa;fill-opacity:0.49803922;fill-rule:evenodd;stroke:#42affa;stroke-width:1.9618206;stroke-linecap:round;stroke-linejoin:round;stroke-miterlimit:4;stroke-dasharray:none;stroke-dashoffset:0;stroke-opacity:1;marker:none;color-rendering:auto;image-rendering:auto;shape-rendering:auto;text-rendering:auto;enable-background:accumulate"
       id="path4598-3-6-1"
       cx="335.22708"
       cy="169.20628"
       r="92.878937" />
    <circle
       style="color:#000000;clip-rule:nonzero;display:inline;overflow:visible;visibility:visible;opacity:1;isolation:auto;mix-blend-mode:normal;color-interpolation:sRGB;color-interpolation-filters:linearRGB;solid-color:#000000;solid-opacity:1;vector-effect:none;fill:#42affa;fill-opacity:0.49803922;fill-rule:evenodd;stroke:#42affa;stroke-width:1.9618206;stroke-linecap:round;stroke-linejoin:round;stroke-miterlimit:4;stroke-dasharray:none;stroke-dashoffset:0;stroke-opacity:1;marker:none;color-rendering:auto;image-rendering:auto;shape-rendering:auto;text-rendering:auto;enable-background:accumulate"
       id="path4598-3-6-1-8"
       cx="219.60414"
       cy="176.87918"
       r="92.878937" />
    <circle
       style="color:#000000;clip-rule:nonzero;display:inline;overflow:visible;visibility:visible;opacity:1;isolation:auto;mix-blend-mode:normal;color-interpolation:sRGB;color-interpolation-filters:linearRGB;solid-color:#000000;solid-opacity:1;vector-effect:none;fill:#42affa;fill-opacity:0.49803922;fill-rule:evenodd;stroke:#42affa;stroke-width:1.9618206;stroke-linecap:round;stroke-linejoin:round;stroke-miterlimit:4;stroke-dasharray:none;stroke-dashoffset:0;stroke-opacity:1;marker:none;color-rendering:auto;image-rendering:auto;shape-rendering:auto;text-rendering:auto;enable-background:accumulate"
       id="path4598-3-6-1-7"
       cx="144.99167"
       cy="123.96251"
       r="92.878937" />
  </g>
  <g
     inkscape:groupmode="layer"
     id="layer3"
     inkscape:label="Labels"
     style="display:inline"
     sodipodi:insensitive="true">
    <circle
       style="color:#000000;clip-rule:nonzero;display:inline;overflow:visible;visibility:visible;opacity:1;isolation:auto;mix-blend-mode:normal;color-interpolation:sRGB;color-interpolation-filters:linearRGB;solid-color:#000000;solid-opacity:1;vector-effect:none;fill:none;fill-opacity:0.49803922;fill-rule:evenodd;stroke:none;stroke-width:1.75118637;stroke-linecap:round;stroke-linejoin:round;stroke-miterlimit:4;stroke-dasharray:none;stroke-dashoffset:0;stroke-opacity:1;marker:none;color-rendering:auto;image-rendering:auto;shape-rendering:auto;text-rendering:auto;enable-background:accumulate"
       id="path4598-3-6-1-3"
       cx="-48.736816"
       cy="368.51971"
       r="82.906822"
       transform="rotate(-72.229058)" />
    <circle
       style="color:#000000;clip-rule:nonzero;display:inline;overflow:visible;visibility:visible;opacity:1;isolation:auto;mix-blend-mode:normal;color-interpolation:sRGB;color-interpolation-filters:linearRGB;solid-color:#000000;solid-opacity:1;vector-effect:none;fill:none;fill-opacity:0.49803922;fill-rule:evenodd;stroke:none;stroke-width:1.85503721;stroke-linecap:round;stroke-linejoin:round;stroke-miterlimit:4;stroke-dasharray:none;stroke-dashoffset:0;stroke-opacity:1;marker:none;color-rendering:auto;image-rendering:auto;shape-rendering:auto;text-rendering:auto;enable-background:accumulate"
       id="path4598-3-6-1-8-7"
       cx="54.610889"
       cy="269.74374"
       r="87.823456"
       transform="matrix(-0.43091697,0.90239158,0.90239158,0.43091697,0,0)" />
    <circle
       style="color:#000000;clip-rule:nonzero;display:inline;overflow:visible;visibility:visible;opacity:1;isolation:auto;mix-blend-mode:normal;color-interpolation:sRGB;color-interpolation-filters:linearRGB;solid-color:#000000;solid-opacity:1;vector-effect:none;fill:none;fill-opacity:0.49803922;fill-rule:evenodd;stroke:none;stroke-width:1.78560388;stroke-linecap:round;stroke-linejoin:round;stroke-miterlimit:4;stroke-dasharray:none;stroke-dashoffset:0;stroke-opacity:1;marker:none;color-rendering:auto;image-rendering:auto;shape-rendering:auto;text-rendering:auto;enable-background:accumulate"
       id="path4598-3-6-1-7-5"
       cx="-129.12611"
       cy="-130.7997"
       r="84.536263"
       transform="rotate(172.41102)" />
    <g
       aria-label="control when the code is executed"
       style="font-style:normal;font-variant:normal;font-weight:bold;font-stretch:normal;font-size:10.58333302px;line-height:125%;font-family:'Fira Code';-inkscape-font-specification:'Fira Code, Bold';text-align:start;letter-spacing:0px;word-spacing:0px;writing-mode:lr-tb;text-anchor:start;fill:#42affa;fill-opacity:1;stroke:none;stroke-width:0.26458332px;stroke-linecap:butt;stroke-linejoin:miter;stroke-opacity:1"
       id="text4832">
      <path
         d="m 60.524709,121.62131 q -0.02098,-0.18934 -0.109982,-0.35837 -0.09532,-0.16833 -0.256542,-0.35491 l 0.58219,-0.51172 q 0.228536,0.21746 0.383415,0.51974 0.154879,0.30228 0.196135,0.67465 0.05944,0.53647 -0.118108,0.95225 -0.178243,0.40947 -0.552785,0.6618 -0.374542,0.25233 -0.898386,0.31036 -0.523845,0.058 -0.957859,-0.11109 -0.434015,-0.16914 -0.71089,-0.53457 -0.277574,-0.37175 -0.336312,-0.9019 -0.04126,-0.37237 0.03317,-0.6809 0.06812,-0.30782 0.254034,-0.59036 l 0.647131,0.36275 q -0.211899,0.39403 -0.169244,0.77902 0.08321,0.75105 1.124589,0.63568 0.523845,-0.058 0.729378,-0.27887 0.199221,-0.22012 0.160063,-0.57356 z"
         style="font-size:6.3499999px;fill:#42affa;fill-opacity:1;stroke-width:0.26458332px"
         id="path6124"
         inkscape:connector-curvature="0" />
      <path
         d="m 57.428988,118.31104 q -0.05058,-0.76669 0.40889,-1.22973 0.452712,-0.46897 1.270085,-0.52289 0.849055,-0.056 1.352695,0.3435 0.503641,0.39952 0.554635,1.17254 0.051,0.77302 -0.389463,1.23481 -0.446793,0.46221 -1.295848,0.51822 -0.538579,0.0355 -0.950301,-0.12822 -0.418477,-0.16967 -0.664488,-0.52254 -0.252766,-0.35879 -0.286205,-0.86569 z m 0.741339,-0.0489 q 0.02048,0.31048 0.283544,0.43949 0.256727,0.12943 0.807979,0.0931 0.557588,-0.0368 0.801423,-0.19924 0.237499,-0.16203 0.217018,-0.47251 -0.02048,-0.31047 -0.283544,-0.43949 -0.263063,-0.12901 -0.820651,-0.0922 -0.544916,0.0359 -0.782415,0.19798 -0.243835,0.16246 -0.223354,0.47293 z"
         style="font-size:6.3499999px;fill:#42affa;fill-opacity:1;stroke-width:0.26458332px"
         id="path6126"
         inkscape:connector-curvature="0" />
      <path
         d="m 57.401714,115.80925 -0.01847,-0.8761 0.385792,-0.078 q -0.258762,-0.2232 -0.384606,-0.46825 -0.132325,-0.25127 -0.139018,-0.5687 -0.0092,-0.43805 0.252319,-0.68492 0.261421,-0.25321 0.737565,-0.26325 l 2.47595,-0.0522 0.02115,1.00307 -2.183915,0.0461 q -0.317429,0.007 -0.43658,0.0791 -0.119151,0.0724 -0.115269,0.25648 0.0032,0.15237 0.107868,0.29625 0.09817,0.13766 0.291843,0.28601 l 2.355327,-0.0497 0.02115,1.00308 z"
         style="font-size:6.3499999px;fill:#42affa;fill-opacity:1;stroke-width:0.26458332px"
         id="path6128"
         inkscape:connector-curvature="0" />
      <path
         d="m 60.588408,108.89166 q 0.293303,0.48341 0.278241,1.11188 -0.01552,0.64752 -0.353534,0.96971 -0.337864,0.31585 -0.934592,0.30155 l -1.529911,-0.0367 -0.01689,0.70465 -0.691951,-0.0166 0.01689,-0.70465 -0.730041,-0.0175 -0.09658,-1.0059 0.850656,0.0204 0.02602,-1.08554 0.689517,0.11815 -0.02358,0.98397 1.529911,0.0367 q 0.247579,0.006 0.358236,-0.10575 0.110658,-0.11168 0.116743,-0.36561 0.0076,-0.31741 -0.138208,-0.59403 z"
         style="font-size:6.3499999px;fill:#42affa;fill-opacity:1;stroke-width:0.26458332px"
         id="path6130"
         inkscape:connector-curvature="0" />
      <path
         d="m 57.536348,105.31919 q 0.02107,-0.30407 0.139982,-0.55044 l 1.393599,0.28115 -0.04389,0.63348 -0.614477,-0.0426 q 0.02503,0.28181 0.263501,0.51475 0.238469,0.23294 0.616553,0.38007 l 0.962892,0.0667 0.04609,-0.66516 0.67149,0.0465 -0.14616,2.10949 -0.67149,-0.0465 0.03072,-0.44344 -2.02714,-0.14045 -0.03072,0.44343 -0.665155,-0.0461 0.08383,-1.20995 0.766133,-0.12515 q -0.418039,-0.21355 -0.607775,-0.50677 -0.196071,-0.29365 -0.16798,-0.69908 z"
         style="font-size:6.3499999px;fill:#42affa;fill-opacity:1;stroke-width:0.26458332px"
         id="path6132"
         inkscape:connector-curvature="0" />
      <path
         d="m 57.810559,102.4782 q 0.08779,-0.76332 0.622872,-1.13643 0.529501,-0.38014 1.343287,-0.28655 0.845327,0.0972 1.269123,0.58061 0.423795,0.48339 0.335281,1.25301 -0.08851,0.76963 -0.604673,1.14491 -0.522467,0.37456 -1.367794,0.27734 -0.536216,-0.0617 -0.91188,-0.29663 -0.381248,-0.24199 -0.559962,-0.63327 -0.184296,-0.39832 -0.126254,-0.90299 z m 0.738084,0.0849 q -0.03555,0.30912 0.200099,0.48323 0.229341,0.17339 0.778173,0.23651 0.555141,0.0639 0.824165,-0.0522 0.262715,-0.11679 0.298266,-0.42591 0.03555,-0.30911 -0.200099,-0.48322 -0.235649,-0.17412 -0.79079,-0.23796 -0.542524,-0.0624 -0.805239,0.0544 -0.269024,0.11607 -0.304575,0.42518 z"
         style="font-size:6.3499999px;fill:#42affa;fill-opacity:1;stroke-width:0.26458332px"
         id="path6134"
         inkscape:connector-curvature="0" />
      <path
         d="m 60.795213,98.64166 q 0.369871,0.05965 0.438618,-0.366643 0.03741,-0.231954 -0.02347,-0.492621 l 0.701921,-0.124787 q 0.154711,0.436601 0.06473,0.994542 -0.09402,0.583017 -0.473796,0.824078 -0.385032,0.23378 -0.993125,0.135714 l -2.802244,-0.451914 -0.157715,0.977961 -0.677052,-0.10918 0.317451,-1.968471 z"
         style="font-size:6.3499999px;fill:#42affa;fill-opacity:1;stroke-width:0.26458332px"
         id="path6136"
         inkscape:connector-curvature="0" />
      <path
         d="m 63.420526,91.363409 -2.26856,-0.27932 2.120506,0.857567 -0.269333,1.051917 -3.390909,-0.350376 0.228382,-0.891977 2.712602,0.465115 -2.158693,-0.913227 0.211056,-0.82431 2.322498,0.273465 -2.600774,-0.901876 0.220507,-0.861219 3.146776,1.303869 z"
         style="font-size:6.3499999px;fill:#42affa;fill-opacity:1;stroke-width:0.26458332px"
         id="path6138"
         inkscape:connector-curvature="0" />
      <path
         d="m 61.337545,87.538725 q -0.30716,-0.538449 -0.142326,-1.079026 0.129644,-0.425174 0.455126,-0.578196 0.319409,-0.154874 0.781026,-0.01412 l 2.368825,0.722304 -0.292626,0.959678 -2.101573,-0.640813 q -0.291547,-0.0889 -0.427324,-0.05727 -0.135777,0.03162 -0.189487,0.207767 -0.04445,0.145774 0.01621,0.316959 0.05644,0.163259 0.206353,0.368298 l 2.229124,0.679707 -0.292625,0.959677 -4.506841,-1.374229 0.195443,-0.98931 z"
         style="font-size:6.3499999px;fill:#42affa;fill-opacity:1;stroke-width:0.26458332px"
         id="path6140"
         inkscape:connector-curvature="0" />
      <path
         d="m 64.058687,84.462332 q 0.75593,0.167343 0.996034,-0.508844 0.144487,-0.406908 0.02568,-0.907309 l 0.648483,-0.194255 q 0.120587,0.305618 0.125526,0.671247 -0.001,0.363505 -0.139157,0.752462 -0.189109,0.532572 -0.530285,0.829208 -0.347161,0.294512 -0.792143,0.352136 -0.448843,0.04951 -0.951494,-0.12897 -0.478717,-0.169985 -0.797945,-0.485491 -0.323088,-0.323615 -0.421255,-0.749302 -0.102027,-0.433796 0.07008,-0.918496 0.161486,-0.454781 0.477945,-0.719763 0.310476,-0.267108 0.745225,-0.314888 0.430891,-0.05589 0.939527,0.12472 0.19747,0.07012 0.33471,0.139066 z m -1.132174,-1.062384 q -0.09137,0.257309 0.04487,0.480886 0.130258,0.221452 0.508591,0.389484 l 0.414338,-1.16687 q -0.770196,-0.260008 -0.967803,0.2965 z"
         style="font-size:6.3499999px;fill:#42affa;fill-opacity:1;stroke-width:0.26458332px"
         id="path6142"
         inkscape:connector-curvature="0" />
      <path
         d="m 63.247856,80.895392 0.330192,-0.811711 0.38512,0.08125 q -0.149142,-0.307459 -0.167584,-0.582317 -0.02193,-0.283132 0.0977,-0.57723 0.165096,-0.405856 0.503061,-0.528877 0.340358,-0.128903 0.781505,0.05055 l 2.293966,0.933152 -0.378047,0.929351 -2.023395,-0.823089 q -0.294098,-0.119635 -0.432175,-0.100394 -0.138077,0.01924 -0.207465,0.189817 -0.05743,0.141167 -0.01835,0.314735 0.03559,0.165294 0.154624,0.378242 l 2.182209,0.887691 -0.378047,0.929351 z"
         style="font-size:6.3499999px;fill:#42affa;fill-opacity:1;stroke-width:0.26458332px"
         id="path6144"
         inkscape:connector-curvature="0" />
      <path
         d="m 70.651789,72.408279 q 0.05248,0.562994 -0.235785,1.121656 -0.297002,0.575591 -0.741853,0.717617 -0.44194,0.136382 -0.972387,-0.137326 l -1.359974,-0.701741 -0.323209,0.626378 -0.615092,-0.317384 0.323209,-0.626379 -0.648951,-0.334855 0.352845,-0.946926 0.756168,0.39018 0.497916,-0.964962 0.568503,0.407674 -0.451327,0.874673 1.359975,0.70174 q 0.220079,0.11356 0.368423,0.06149 0.148344,-0.05207 0.264815,-0.277797 0.14559,-0.282152 0.135363,-0.594686 z"
         style="font-size:6.3499999px;fill:#42affa;fill-opacity:1;stroke-width:0.26458332px"
         id="path6146"
         inkscape:connector-curvature="0" />
      <path
         d="m 69.066085,69.43977 q -0.179116,-0.593457 0.102309,-1.083553 0.221346,-0.385469 0.572786,-0.461917 0.345934,-0.07961 0.764443,0.160709 l 2.147613,1.233212 -0.499609,0.870059 -1.905318,-1.094081 q -0.264321,-0.151779 -0.403732,-0.151285 -0.13941,4.94e-4 -0.23111,0.160188 -0.07589,0.132161 -0.055,0.31257 0.01854,0.171741 0.118866,0.405089 l 2.020959,1.160483 -0.499609,0.870059 -4.085971,-2.346264 0.411501,-0.920652 z"
         style="font-size:6.3499999px;fill:#42affa;fill-opacity:1;stroke-width:0.26458332px"
         id="path6148"
         inkscape:connector-curvature="0" />
      <path
         d="m 72.40497,67.049083 q 0.69958,0.331694 1.084421,-0.273925 0.231586,-0.364444 0.227355,-0.878738 l 0.675472,-0.04476 q 0.0494,0.324812 -0.02732,0.682337 -0.08208,0.354119 -0.303445,0.702484 -0.303105,0.476993 -0.701838,0.690081 -0.404092,0.209683 -0.85072,0.166628 -0.448582,-0.05182 -0.898777,-0.337896 -0.428758,-0.272454 -0.669593,-0.651201 -0.24279,-0.387512 -0.243561,-0.824371 -0.0027,-0.445624 0.273134,-0.879741 0.258832,-0.40732 0.626412,-0.595063 0.362221,-0.191148 0.796678,-0.14078 0.432503,0.0416 0.888058,0.331084 0.176862,0.112388 0.295272,0.210202 z m -0.866765,-1.288099 q -0.146444,0.230457 -0.06349,0.478785 0.0776,0.244922 0.408933,0.493088 l 0.664107,-1.045096 q -0.692823,-0.425207 -1.009551,0.07322 z"
         style="font-size:6.3499999px;fill:#42affa;fill-opacity:1;stroke-width:0.26458332px"
         id="path6150"
         inkscape:connector-curvature="0" />
      <path
         d="m 77.919541,60.380893 q 0.11614,-0.151003 0.169169,-0.334523 0.048,-0.187392 0.06114,-0.433631 l 0.774335,0.03479 q 0.01396,0.315152 -0.08397,0.640379 -0.09793,0.325226 -0.326338,0.622199 -0.329062,0.427841 -0.745253,0.604418 -0.412321,0.171543 -0.85718,0.09375 -0.44486,-0.07779 -0.862634,-0.399109 -0.417775,-0.321319 -0.613323,-0.744091 -0.195548,-0.422772 -0.141764,-0.878083 0.05766,-0.460345 0.382847,-0.883153 0.228408,-0.296973 0.495928,-0.467731 0.262486,-0.174631 0.592347,-0.249377 l 0.214926,0.710049 q -0.425873,0.137086 -0.662023,0.444125 -0.460687,0.598978 0.369829,1.237745 0.417775,0.32132 0.718989,0.304651 0.296181,-0.02054 0.512974,-0.302413 z"
         style="font-size:6.3499999px;fill:#42affa;fill-opacity:1;stroke-width:0.26458332px"
         id="path6152"
         inkscape:connector-curvature="0" />
      <path
         d="m 77.984463,55.848728 q 0.495215,-0.587473 1.147363,-0.602486 0.651387,-0.02396 1.277701,0.503994 0.650589,0.54842 0.736423,1.185521 0.08583,0.637101 -0.413474,1.229429 -0.499307,0.592328 -1.13689,0.619619 -0.642438,0.0232 -1.293028,-0.52522 -0.412688,-0.347878 -0.595781,-0.751371 -0.183857,-0.412442 -0.116411,-0.837284 0.06668,-0.43379 0.394097,-0.822202 z m 0.568052,0.478844 q -0.200541,0.237902 -0.100467,0.513278 0.09522,0.271283 0.517617,0.627346 0.427253,0.360156 0.715591,0.412195 0.283482,0.04795 0.484023,-0.189956 0.200542,-0.237902 0.100468,-0.513278 -0.100075,-0.275376 -0.527328,-0.635532 -0.417542,-0.35197 -0.701025,-0.399916 -0.288337,-0.05204 -0.488879,0.185863 z"
         style="font-size:6.3499999px;fill:#42affa;fill-opacity:1;stroke-width:0.26458332px"
         id="path6154"
         inkscape:connector-curvature="0" />
      <path
         d="m 80.695776,50.971914 3.462939,3.195023 -0.602834,0.653384 -0.305136,-0.212409 q 0.05534,0.258411 -0.006,0.521517 -0.06598,0.258799 -0.276971,0.487484 -0.413373,0.448035 -0.983365,0.354134 -0.565687,-0.09857 -1.181735,-0.666955 -0.382697,-0.353089 -0.569432,-0.750013 -0.186736,-0.396924 -0.148063,-0.775956 0.03867,-0.379033 0.314254,-0.677723 0.31003,-0.336026 0.750067,-0.344746 l -1.213429,-1.119549 z m 0.425907,2.431962 q -0.185157,0.200683 -0.09715,0.489236 0.08334,0.284247 0.484703,0.65456 0.429367,0.396148 0.69714,0.461767 0.267411,0.05664 0.435344,-0.125369 0.215298,-0.233352 0.08993,-0.668696 L 81.662897,53.22931 q -0.175876,-0.01539 -0.309027,0.02592 -0.128844,0.03664 -0.232187,0.14865 z"
         style="font-size:6.3499999px;fill:#42affa;fill-opacity:1;stroke-width:0.26458332px"
         id="path6156"
         inkscape:connector-curvature="0" />
      <path
         d="m 84.413817,51.928572 q 0.608454,0.478767 1.118175,-0.02627 0.306735,-0.303916 0.416818,-0.806307 l 0.668545,0.106359 q -0.02396,0.327673 -0.178159,0.659234 -0.158666,0.32705 -0.451868,0.617559 -0.401462,0.397772 -0.837559,0.516994 -0.440567,0.114711 -0.866482,-0.02645 -0.425874,-0.150141 -0.8013,-0.529049 -0.357548,-0.360864 -0.508263,-0.783636 -0.150673,-0.431752 -0.05441,-0.857875 0.0963,-0.435102 0.461677,-0.79712 0.342821,-0.339671 0.742915,-0.441099 0.395625,-0.105938 0.808049,0.03965 0.412466,0.136609 0.792361,0.520027 0.147489,0.148857 0.241221,0.270524 z M 83.85474,50.480155 q -0.193964,0.192182 -0.168226,0.452731 0.02127,0.256038 0.289223,0.571587 l 0.879607,-0.871524 Q 84.274245,50.064505 83.85474,50.480155 Z"
         style="font-size:6.3499999px;fill:#42affa;fill-opacity:1;stroke-width:0.26458332px"
         id="path6158"
         inkscape:connector-curvature="0" />
      <path
         d="m 88.176467,43.436063 q 0.200643,-0.165905 0.433088,-0.143876 0.228399,0.01714 0.382164,0.203098 0.157812,0.190856 0.131737,0.418407 -0.02608,0.227551 -0.226719,0.393456 -0.200644,0.165905 -0.433936,0.152816 -0.232445,-0.02203 -0.386211,-0.207991 -0.153765,-0.185962 -0.127689,-0.413514 0.02692,-0.236491 0.227566,-0.402396 z m 3.301472,3.046097 0.665549,-0.550319 0.437017,0.528524 -2.172819,1.796628 -0.437018,-0.528524 0.734061,-0.606969 -1.274635,-1.541527 -0.709592,0.586736 -0.437017,-0.528524 1.482803,-1.226076 z"
         style="font-size:6.3499999px;fill:#42affa;fill-opacity:1;stroke-width:0.26458332px"
         id="path6160"
         inkscape:connector-curvature="0" />
      <path
         d="m 93.989816,44.60987 q 0.207913,-0.156698 0.278685,-0.305454 0.07202,-0.157649 -0.02353,-0.284425 -0.06879,-0.09128 -0.161546,-0.108842 -0.08768,-0.02139 -0.257746,0.02727 -0.173889,0.04359 -0.510125,0.177726 -0.485945,0.199259 -0.840339,0.172149 -0.358217,-0.03218 -0.610462,-0.36687 -0.278998,-0.370187 -0.150541,-0.83277 0.133527,-0.466404 0.686272,-0.88299 0.638954,-0.481559 1.338701,-0.492089 l 0.03596,0.712388 q -0.542172,0.0508 -0.91743,0.333621 -0.197772,0.149054 -0.255903,0.27238 -0.05306,0.119505 0.0272,0.225997 0.05351,0.071 0.137365,0.08731 0.08511,0.0074 0.255174,-0.04124 0.175137,-0.05248 0.501232,-0.178975 0.3502,-0.136711 0.605374,-0.177949 0.260246,-0.04506 0.483967,0.04078 0.223722,0.08584 0.414817,0.339389 0.214026,0.283979 0.194486,0.616766 -0.01954,0.332787 -0.232153,0.652056 -0.212612,0.319269 -0.562515,0.58298 -0.375259,0.28282 -0.759782,0.405641 -0.384523,0.122822 -0.74274,0.09064 l 0.06046,-0.753254 q 0.579143,0.0088 1.005112,-0.312236 z"
         style="font-size:6.3499999px;fill:#42affa;fill-opacity:1;stroke-width:0.26458332px"
         id="path6162"
         inkscape:connector-curvature="0" />
      <path
         d="m 99.487855,39.859031 q 0.486098,0.602613 1.095775,0.224234 0.36689,-0.227698 0.58644,-0.692792 l 0.62788,0.253047 q -0.0966,0.314034 -0.32095,0.60276 -0.22773,0.283331 -0.57843,0.500983 -0.48019,0.298016 -0.931902,0.316785 -0.455059,0.01337 -0.838666,-0.219384 -0.38156,-0.241501 -0.662834,-0.694712 -0.267879,-0.431631 -0.320322,-0.877389 -0.05039,-0.454503 0.138643,-0.848345 0.191084,-0.402585 0.628109,-0.673813 0.410049,-0.254486 0.82269,-0.263954 0.409292,-0.01486 0.778762,0.219195 0.37151,0.225314 0.65614,0.683921 0.1105,0.178048 0.17467,0.317582 z m -0.221316,-1.536716 q -0.232001,0.143985 -0.265129,0.403698 -0.03648,0.254317 0.154198,0.621759 l 1.052102,-0.652956 q -0.439401,-0.683911 -0.941171,-0.372501 z"
         style="font-size:6.3499999px;fill:#42affa;fill-opacity:1;stroke-width:0.26458332px"
         id="path6164"
         inkscape:connector-curvature="0" />
      <path
         d="m 102.46192,39.657391 0.14348,-2.110402 -1.69571,-0.884862 0.98085,-0.548812 0.99814,0.678507 -0.0727,-1.196313 0.93098,-0.520906 -0.10172,1.846915 1.89778,1.011921 -0.99193,0.555013 -1.19889,-0.777198 0.0573,1.415929 z"
         style="font-size:6.3499999px;fill:#42affa;fill-opacity:1;stroke-width:0.26458332px"
         id="path6166"
         inkscape:connector-curvature="0" />
      <path
         d="m 106.21499,36.033858 q 0.42953,0.644161 1.07097,0.322551 0.386,-0.193534 0.64677,-0.636833 l 0.60238,0.308871 q -0.12461,0.303998 -0.37422,0.571216 -0.25245,0.261542 -0.62142,0.446539 -0.50521,0.253303 -0.95676,0.231085 -0.4544,-0.0279 -0.81535,-0.294437 -0.35813,-0.275064 -0.5972,-0.751887 -0.22769,-0.454117 -0.23954,-0.902793 -0.009,-0.457199 0.2149,-0.832302 0.22676,-0.383626 0.68655,-0.61416 0.43141,-0.216303 0.84322,-0.188362 0.40895,0.02227 0.75571,0.288823 0.34958,0.258035 0.5915,0.740534 0.0939,0.187324 0.1452,0.332097 z m -0.0812,-1.550445 q -0.24409,0.122383 -0.3006,0.378028 -0.0594,0.249969 0.0972,0.633169 l 1.10691,-0.554989 q -0.37565,-0.720895 -0.90356,-0.456208 z"
         style="font-size:6.3499999px;fill:#42affa;fill-opacity:1;stroke-width:0.26458332px"
         id="path6168"
         inkscape:connector-curvature="0" />
      <path
         d="m 110.82986,34.622791 q 0.174,-0.07757 0.30795,-0.21376 0.13136,-0.141993 0.26008,-0.352326 l 0.66454,0.398989 q -0.13766,0.283844 -0.37852,0.523317 -0.24086,0.239474 -0.58305,0.392022 -0.49298,0.219772 -0.94306,0.177084 -0.44428,-0.04527 -0.79857,-0.325335 -0.35428,-0.280063 -0.56888,-0.761444 -0.2146,-0.481381 -0.18547,-0.946276 0.0291,-0.464894 0.29305,-0.83979 0.26972,-0.377482 0.7569,-0.594669 0.34219,-0.152548 0.65873,-0.175473 0.31396,-0.02872 0.63966,0.06246 l -0.14876,0.726797 q -0.4398,-0.08203 -0.79359,0.07569 -0.69017,0.307681 -0.26356,1.264644 0.2146,0.481382 0.48748,0.610021 0.27028,0.12284 0.59507,-0.02195 z"
         style="font-size:6.3499999px;fill:#42affa;fill-opacity:1;stroke-width:0.26458332px"
         id="path6170"
         inkscape:connector-curvature="0" />
      <path
         d="m 113.50381,33.08674 q 0.0858,0.218711 0.19979,0.283131 0.11755,0.05619 0.27715,-0.0064 0.14187,-0.05568 0.25485,-0.202336 0.11066,-0.152572 0.1426,-0.349288 l -0.86527,-2.204841 0.93395,-0.366526 1.2318,3.138795 -0.81573,0.32013 -0.1852,-0.35025 q -0.0655,0.284936 -0.27691,0.51114 -0.2137,0.220292 -0.50334,0.333961 -0.44333,0.173984 -0.77362,0.01028 -0.32669,-0.171937 -0.50763,-0.633003 l -0.88848,-2.263951 0.93396,-0.366526 z"
         style="font-size:6.3499999px;fill:#42affa;fill-opacity:1;stroke-width:0.26458332px"
         id="path6172"
         inkscape:connector-curvature="0" />
      <path
         d="m 119.3207,31.9081 q -0.35238,0.442207 -0.94738,0.645119 -0.61303,0.20906 -1.03214,0.0031 -0.41309,-0.207996 -0.60576,-0.772948 l -0.49395,-1.44844 -0.66713,0.227507 -0.22341,-0.655103 0.66713,-0.227507 -0.23571,-0.691165 0.91066,-0.438031 0.27465,0.805357 1.02773,-0.350484 0.12724,0.687897 -0.93157,0.31769 0.49396,1.44844 q 0.0799,0.234395 0.22296,0.299674 0.14303,0.06528 0.38343,-0.0167 0.30051,-0.102481 0.50975,-0.334857 z"
         style="font-size:6.3499999px;fill:#42affa;fill-opacity:1;stroke-width:0.26458332px"
         id="path6174"
         inkscape:connector-curvature="0" />
      <path
         d="m 120.56833,30.285664 q 0.30634,0.711049 0.99525,0.510365 0.41457,-0.120765 0.751,-0.50978 l 0.53681,0.412422 q -0.17738,0.276546 -0.47108,0.49438 -0.29547,0.211737 -0.69175,0.327174 -0.5426,0.15806 -0.98274,0.05479 -0.44193,-0.109368 -0.7489,-0.436623 -0.30266,-0.335127 -0.45184,-0.847241 -0.14208,-0.487728 -0.0728,-0.931189 0.0736,-0.451333 0.36145,-0.779913 0.29221,-0.336452 0.78604,-0.480304 0.46334,-0.134973 0.86335,-0.03324 0.39824,0.09564 0.69125,0.420347 0.29733,0.316838 0.44829,0.835049 0.0586,0.201187 0.0829,0.352833 z m 0.19965,-1.539681 q -0.26215,0.07637 -0.36384,0.317632 -0.10345,0.235169 -0.0185,0.640328 l 1.18884,-0.346312 q -0.23952,-0.776812 -0.8065,-0.611648 z"
         style="font-size:6.3499999px;fill:#42affa;fill-opacity:1;stroke-width:0.26458332px"
         id="path6176"
         inkscape:connector-curvature="0" />
      <path
         d="m 125.50869,25.550259 1.11287,4.578389 -0.86385,0.209975 -0.13635,-0.345881 q -0.0971,0.245787 -0.2939,0.430858 -0.19831,0.1789 -0.50065,0.252391 -0.59236,0.143983 -1.01486,-0.249971 -0.41633,-0.395455 -0.61431,-1.209939 -0.12298,-0.505967 -0.0585,-0.939864 0.0644,-0.433897 0.30662,-0.72802 0.24218,-0.294124 0.63708,-0.390112 0.44427,-0.107988 0.81543,0.128538 l -0.38995,-1.604287 z m -0.99275,2.260592 q -0.26533,0.06449 -0.35192,0.353472 -0.0881,0.282809 0.0409,0.813458 0.13798,0.56767 0.32455,0.770647 0.19124,0.195306 0.43188,0.136813 0.30852,-0.07499 0.44533,-0.506875 l -0.34346,-1.413006 q -0.13789,-0.110251 -0.27162,-0.149628 -0.12757,-0.04088 -0.27565,-0.0049 z"
         style="font-size:6.3499999px;fill:#42affa;fill-opacity:1;stroke-width:0.26458332px"
         id="path6178"
         inkscape:connector-curvature="0" />
    </g>
    <g
       aria-label="result cached"
       style="font-style:normal;font-variant:normal;font-weight:bold;font-stretch:normal;font-size:10.58333302px;line-height:125%;font-family:'Fira Code';-inkscape-font-specification:'Fira Code, Bold';text-align:start;letter-spacing:0px;word-spacing:0px;writing-mode:lr-tb;text-anchor:start;fill:#42affa;fill-opacity:1;stroke:none;stroke-width:0.26458332px;stroke-linecap:butt;stroke-linejoin:miter;stroke-opacity:1"
       id="text4832-2">
      <path
         d="m 186.20758,242.86329 q 0.27778,0.12546 0.46744,0.3226 l -0.74808,1.20894 -0.57872,-0.26138 0.25354,-0.56135 q -0.27293,-0.0745 -0.57424,0.0681 -0.30131,0.14262 -0.57071,0.44597 l -0.39729,0.87964 0.60764,0.27445 -0.27706,0.61343 -1.92711,-0.87038 0.27706,-0.61344 0.4051,0.18297 0.83641,-1.85188 -0.4051,-0.18296 0.27445,-0.60765 1.10534,0.49923 -0.149,0.76185 q 0.34556,-0.31772 0.68645,-0.39369 0.3435,-0.0818 0.71388,0.0855 z"
         style="font-size:6.3499999px;fill:#42affa;fill-opacity:1;stroke-width:0.26458332px"
         id="path6099"
         inkscape:connector-curvature="0" />
      <path
         d="m 187.23686,245.55341 q -0.19761,0.74859 0.46837,1.0157 0.40076,0.16074 0.90554,0.0622 l 0.16801,0.65577 q -0.31022,0.1082 -0.67575,0.0984 -0.36317,-0.0157 -0.74626,-0.16931 -0.52453,-0.21038 -0.8072,-0.56321 -0.28031,-0.35873 -0.31999,-0.80567 -0.0314,-0.45047 0.16714,-0.94554 0.18911,-0.47149 0.5172,-0.77777 0.33635,-0.3098 0.76564,-0.39077 0.43755,-0.0845 0.91493,0.10698 0.44792,0.17965 0.69996,0.50651 0.2544,0.32097 0.28465,0.75729 0.0385,0.43279 -0.16241,0.93375 -0.078,0.19449 -0.15242,0.32884 z m 1.10707,-1.08852 q -0.25343,-0.10164 -0.4823,0.0255 -0.22651,0.12124 -0.40963,0.49251 l 1.14926,0.46094 q 0.29078,-0.75911 -0.25733,-0.97895 z"
         style="font-size:6.3499999px;fill:#42affa;fill-opacity:1;stroke-width:0.26458332px"
         id="path6101"
         inkscape:connector-curvature="0" />
      <path
         d="m 190.93135,247.79404 q 0.24559,0.0864 0.40866,0.063 0.17116,-0.0273 0.22385,-0.17704 0.0379,-0.10782 0.001,-0.19478 -0.0307,-0.0849 -0.16539,-0.19956 -0.13255,-0.12069 -0.43039,-0.32647 -0.43494,-0.2944 -0.60853,-0.60455 -0.17149,-0.31615 -0.0324,-0.71149 0.15386,-0.43727 0.61022,-0.58635 0.46234,-0.14697 1.11525,0.0828 0.75474,0.26557 1.15085,0.84251 l -0.57339,0.42428 q -0.34242,-0.42341 -0.78568,-0.57938 -0.23361,-0.0822 -0.3685,-0.0623 -0.12889,0.022 -0.17315,0.14776 -0.0295,0.0839 0.003,0.16273 0.0409,0.075 0.17559,0.18968 0.14066,0.11681 0.42651,0.31837 0.30771,0.21598 0.4833,0.40566 0.18159,0.1918 0.23394,0.42563 0.0523,0.23384 -0.053,0.53334 -0.11803,0.33544 -0.406,0.50338 -0.28797,0.16793 -0.67155,0.1676 -0.38359,-3.4e-4 -0.7969,-0.14578 -0.44326,-0.15596 -0.7584,-0.40822 -0.31513,-0.25225 -0.48662,-0.56839 l 0.66079,-0.3666 q 0.31325,0.48719 0.81641,0.66424 z"
         style="font-size:6.3499999px;fill:#42affa;fill-opacity:1;stroke-width:0.26458332px"
         id="path6103"
         inkscape:connector-curvature="0" />
      <path
         d="m 194.32128,248.43684 q -0.0683,0.2248 -0.0189,0.34601 0.0574,0.11698 0.22141,0.16683 0.14582,0.0443 0.3254,-6.7e-4 0.18143,-0.051 0.32849,-0.18556 l 0.68865,-2.26623 0.95996,0.29171 -0.98036,3.22619 -0.83844,-0.25479 0.0719,-0.38961 q -0.22813,0.18287 -0.53423,0.22923 -0.30425,0.0403 -0.60196,-0.0502 -0.45568,-0.13847 -0.61324,-0.47173 -0.14964,-0.33748 -0.006,-0.81139 l 0.70711,-2.32698 0.95996,0.2917 z"
         style="font-size:6.3499999px;fill:#42affa;fill-opacity:1;stroke-width:0.26458332px"
         id="path6105"
         inkscape:connector-curvature="0" />
      <path
         d="m 198.66764,249.66517 q -0.0932,0.36287 0.32498,0.47033 0.22756,0.0585 0.4927,0.0217 l 0.06,0.7104 q -0.44892,0.11412 -0.99629,-0.0265 -0.57197,-0.14696 -0.77728,-0.5472 -0.19758,-0.4048 -0.0443,-1.00137 l 0.70638,-2.74915 -0.95943,-0.24653 0.17067,-0.66422 1.93117,0.49621 z"
         style="font-size:6.3499999px;fill:#42affa;fill-opacity:1;stroke-width:0.26458332px"
         id="path6107"
         inkscape:connector-curvature="0" />
      <path
         d="m 203.40331,251.61721 q -0.5289,0.19994 -1.14402,0.0702 -0.63375,-0.13369 -0.88869,-0.52493 -0.24872,-0.38993 -0.12553,-0.97398 l 0.31586,-1.4974 -0.68968,-0.14547 0.14286,-0.67725 0.68967,0.14548 0.15072,-0.71453 1.0066,0.089 -0.17562,0.83258 1.06247,0.22411 -0.24227,0.65628 -0.96305,-0.20314 -0.31586,1.4974 q -0.0511,0.24232 0.0385,0.37153 0.0896,0.12922 0.33809,0.18164 0.31066,0.0655 0.60928,-0.0272 z"
         style="font-size:6.3499999px;fill:#42affa;fill-opacity:1;stroke-width:0.26458332px"
         id="path6109"
         inkscape:connector-curvature="0" />
      <path
         d="m 209.74228,252.08799 q 0.18912,0.0229 0.37402,-0.0251 0.18567,-0.0543 0.40419,-0.16853 l 0.36494,0.68383 q -0.26398,0.17272 -0.59368,0.25432 -0.3297,0.0816 -0.70163,0.0366 -0.53584,-0.0649 -0.89996,-0.33286 -0.35783,-0.2672 -0.51776,-0.68955 -0.15994,-0.42234 -0.0966,-0.94556 0.0634,-0.52323 0.32732,-0.90703 0.26395,-0.3838 0.68304,-0.56972 0.4254,-0.18515 0.95493,-0.12103 0.37193,0.045 0.65524,0.18809 0.28407,0.13674 0.51658,0.38238 l -0.50119,0.54696 q -0.3351,-0.29643 -0.71964,-0.343 -0.75017,-0.0908 -0.87613,0.94931 -0.0634,0.52322 0.10458,0.77383 0.16871,0.2443 0.52173,0.28705 z"
         style="font-size:6.3499999px;fill:#42affa;fill-opacity:1;stroke-width:0.26458332px"
         id="path6111"
         inkscape:connector-curvature="0" />
      <path
         d="m 214.5693,252.2412 q -0.0141,0.1836 0.0297,0.27614 0.0438,0.0925 0.16071,0.14612 l -0.25962,0.64236 q -0.30146,-0.0551 -0.49626,-0.17194 -0.19432,-0.12323 -0.29268,-0.33461 -0.207,0.20698 -0.5075,0.30485 -0.30001,0.0915 -0.62924,0.0662 -0.51916,-0.04 -0.80697,-0.35509 -0.28733,-0.32145 -0.25126,-0.78996 0.0419,-0.54449 0.49535,-0.80892 0.45392,-0.27076 1.23266,-0.21081 l 0.44952,0.0346 0.009,-0.1203 q 0.04,-0.51916 -0.62481,-0.57034 -0.17095,-0.0132 -0.43443,0.0175 -0.25666,0.0248 -0.50359,0.0886 l -0.17675,-0.68233 q 0.33216,-0.0954 0.68525,-0.13194 0.35992,-0.0423 0.64482,-0.0204 1.46886,0.11307 1.37723,1.30335 z m -1.59793,0.24001 q 0.17094,0.0132 0.3492,-0.0686 0.18507,-0.0877 0.28687,-0.25178 l 0.0424,-0.55082 -0.24692,-0.019 q -0.8104,-0.0624 -0.84939,0.44412 -0.0151,0.19627 0.0906,0.31267 0.11201,0.1169 0.32728,0.13347 z"
         style="font-size:6.3499999px;fill:#42affa;fill-opacity:1;stroke-width:0.26458332px"
         id="path6113"
         inkscape:connector-curvature="0" />
      <path
         d="m 217.27496,252.6389 q 0.1904,0.006 0.37042,-0.0576 0.18023,-0.0703 0.38795,-0.20314 l 0.42318,0.6494 q -0.24791,0.19508 -0.56924,0.30513 -0.32132,0.11005 -0.69577,0.0976 -0.53945,-0.0179 -0.92556,-0.2531 -0.37976,-0.23499 -0.57592,-0.64177 -0.19615,-0.40679 -0.17866,-0.93354 0.0175,-0.52676 0.24697,-0.93212 0.22948,-0.40536 0.63076,-0.62711 0.40763,-0.22155 0.94073,-0.20384 0.37445,0.0124 0.66915,0.13023 0.29491,0.11144 0.54795,0.33587 l -0.45158,0.58858 q -0.35967,-0.26608 -0.7468,-0.27894 -0.75524,-0.0251 -0.79001,1.0221 -0.0175,0.52676 0.17166,0.76176 0.18937,0.22867 0.54477,0.24047 z"
         style="font-size:6.3499999px;fill:#42affa;fill-opacity:1;stroke-width:0.26458332px"
         id="path6115"
         inkscape:connector-curvature="0" />
      <path
         d="m 220.24062,250.32632 q 0.42075,-0.45524 0.98587,-0.4611 0.44447,-0.005 0.68853,0.25957 0.24398,0.25783 0.24899,0.74041 l 0.0257,2.47636 -1.00325,0.0104 -0.0228,-2.19698 q -0.003,-0.30478 -0.0743,-0.4247 -0.0711,-0.11992 -0.25523,-0.11801 -0.1524,0.002 -0.29732,0.11104 -0.13864,0.10304 -0.28892,0.30781 l 0.0242,2.33033 -1.00325,0.0104 -0.0489,-4.71145 1.00219,-0.112 z"
         style="font-size:6.3499999px;fill:#42affa;fill-opacity:1;stroke-width:0.26458332px"
         id="path6117"
         inkscape:connector-curvature="0" />
      <path
         d="m 223.86993,251.87751 q 0.13648,0.76211 0.85299,0.72348 0.43118,-0.0232 0.84731,-0.32549 l 0.42887,0.52376 q -0.23567,0.22893 -0.57123,0.3742 -0.33591,0.13894 -0.74806,0.16116 -0.56433,0.0304 -0.96943,-0.1703 -0.40543,-0.20707 -0.62988,-0.5956 -0.21844,-0.39522 -0.24716,-0.92784 -0.0273,-0.50726 0.14099,-0.92333 0.17435,-0.42275 0.52946,-0.67719 0.36112,-0.26112 0.87472,-0.28881 0.4819,-0.026 0.84827,0.16411 0.36602,0.18376 0.57744,0.56664 0.21742,0.37619 0.24648,0.91515 0.0113,0.20925 4.7e-4,0.36245 z m 0.54482,-1.45384 q -0.27265,0.0147 -0.42657,0.2265 -0.15427,0.20545 -0.16375,0.61931 l 1.23646,-0.0667 q -0.0565,-0.81093 -0.64614,-0.77914 z"
         style="font-size:6.3499999px;fill:#42affa;fill-opacity:1;stroke-width:0.26458332px"
         id="path6119"
         inkscape:connector-curvature="0" />
      <path
         d="m 229.32689,248.11556 0.45759,4.68942 -0.8848,0.0863 -0.0863,-0.36162 q -0.13072,0.22968 -0.35161,0.38521 -0.2215,0.14922 -0.53118,0.17944 -0.60672,0.0592 -0.96959,-0.39028 -0.35655,-0.4501 -0.43795,-1.28434 -0.0506,-0.51824 0.0743,-0.93875 0.12485,-0.42051 0.40601,-0.67763 0.28116,-0.25712 0.68564,-0.29659 0.45503,-0.0444 0.78923,0.24199 l -0.16034,-1.64319 z m -1.30096,2.09841 q -0.27176,0.0265 -0.39815,0.30044 -0.12701,0.2676 -0.074,0.81112 0.0567,0.58144 0.21289,0.80865 0.16186,0.22027 0.40834,0.19622 0.316,-0.0308 0.51222,-0.43918 l -0.14122,-1.44727 q -0.12101,-0.12856 -0.24787,-0.18636 -0.12055,-0.0584 -0.27223,-0.0436 z"
         style="font-size:6.3499999px;fill:#42affa;fill-opacity:1;stroke-width:0.26458332px"
         id="path6121"
         inkscape:connector-curvature="0" />
    </g>
    <g
       aria-label="non-blocking"
       style="font-style:normal;font-variant:normal;font-weight:bold;font-stretch:normal;font-size:10.58333302px;line-height:125%;font-family:'Fira Code';-inkscape-font-specification:'Fira Code, Bold';text-align:start;letter-spacing:0px;word-spacing:0px;writing-mode:lr-tb;text-anchor:start;fill:#42affa;fill-opacity:1;stroke:none;stroke-width:0.26458332px;stroke-linecap:butt;stroke-linejoin:miter;stroke-opacity:1"
       id="text4832-2-3">
      <path
         d="m 362.89315,76.87517 0.82824,0.286202 -0.0605,0.388922 q 0.29902,-0.16541 0.5725,-0.19856 0.28154,-0.03708 0.58163,0.06662 0.41413,0.143101 0.55509,0.473984 0.14696,0.332958 -0.009,0.783091 l -0.80883,2.340693 -0.94828,-0.32768 0.71343,-2.064611 q 0.10369,-0.300089 0.0771,-0.436936 -0.0266,-0.136847 -0.20067,-0.196991 -0.14404,-0.04977 -0.31526,-0.0014 -0.16315,0.0444 -0.36941,0.174679 l -0.76943,2.226659 -0.94828,-0.32768 z"
         style="font-size:6.3499999px;fill:#42affa;fill-opacity:1;stroke-width:0.26458332px"
         id="path6074"
         inkscape:connector-curvature="0" />
      <path
         d="m 368.02852,78.623776 q 0.7141,0.283612 0.93492,0.897418 0.22908,0.610249 -0.0733,1.371553 -0.31408,0.790812 -0.89118,1.074046 -0.5771,0.283233 -1.29709,-0.0027 -0.71999,-0.285955 -0.94785,-0.882057 -0.22552,-0.602003 0.0886,-1.392815 0.19924,-0.501634 0.52395,-0.803117 0.33296,-0.305041 0.75728,-0.37565 0.43258,-0.07417 0.9047,0.113344 z m -0.27423,0.690485 q -0.28918,-0.11485 -0.51867,0.0673 -0.22715,0.176252 -0.43107,0.68969 -0.20626,0.519339 -0.16428,0.809312 0.0443,0.284071 0.3335,0.398922 0.28918,0.114851 0.51867,-0.0673 0.22949,-0.182154 0.43576,-0.701493 0.20157,-0.507536 0.15725,-0.791607 -0.042,-0.289973 -0.33116,-0.404824 z"
         style="font-size:6.3499999px;fill:#42affa;fill-opacity:1;stroke-width:0.26458332px"
         id="path6076"
         inkscape:connector-curvature="0" />
      <path
         d="m 370.30192,79.67516 0.7988,0.360313 -0.0956,0.381812 q 0.31282,-0.137541 0.58818,-0.145693 0.28375,-0.01133 0.57317,0.119219 0.3994,0.180156 0.5097,0.522485 0.11608,0.344939 -0.0797,0.779068 l -1.01827,2.25747 -0.91457,-0.412532 0.89817,-1.991204 q 0.13055,-0.289419 0.11649,-0.428119 -0.0141,-0.1387 -0.18193,-0.214418 -0.13892,-0.06266 -0.31383,-0.0301 -0.16651,0.02939 -0.38376,0.140373 l -0.96866,2.147491 -0.91457,-0.412532 z"
         style="font-size:6.3499999px;fill:#42affa;fill-opacity:1;stroke-width:0.26458332px"
         id="path6078"
         inkscape:connector-curvature="0" />
      <path
         d="m 373.41186,82.479191 2.45748,1.247325 -0.35063,0.69081 -2.45748,-1.247325 z"
         style="font-size:6.3499999px;fill:#42affa;fill-opacity:1;stroke-width:0.26458332px"
         id="path6080"
         inkscape:connector-curvature="0" />
      <path
         d="m 378.13118,83.934627 q 0.24459,-0.109512 0.49743,-0.104845 0.25837,0.0078 0.47932,0.133078 0.54686,0.310068 0.58024,0.869169 0.0389,0.562234 -0.38078,1.302432 -0.25996,0.458481 -0.59851,0.733709 -0.33854,0.275227 -0.71957,0.329274 -0.3779,0.04852 -0.748,-0.16132 -0.22095,-0.12528 -0.35552,-0.325674 -0.13457,-0.200393 -0.16452,-0.443669 l -0.18348,0.246354 -0.77334,-0.43848 2.32394,-4.098708 0.92601,0.400949 z m -0.75616,2.337841 q 0.50267,0.285011 1.02571,-0.637474 0.29128,-0.51372 0.29116,-0.783875 -1.2e-4,-0.270155 -0.2266,-0.398567 -0.27067,-0.153468 -0.66923,0.07313 l -0.70157,1.237346 q 0.0209,0.362238 0.28053,0.509442 z"
         style="font-size:6.3499999px;fill:#42affa;fill-opacity:1;stroke-width:0.26458332px"
         id="path6082"
         inkscape:connector-curvature="0" />
      <path
         d="m 381.12002,88.010508 q -0.19965,0.317021 0.16573,0.547127 0.19881,0.125205 0.46251,0.171205 l -0.15988,0.694768 q -0.46233,-0.02851 -0.94055,-0.329676 -0.49971,-0.314704 -0.5729,-0.758529 -0.0644,-0.445815 0.2638,-0.967018 l 1.51261,-2.401835 -0.83822,-0.527891 0.36546,-0.580309 1.68719,1.062549 z"
         style="font-size:6.3499999px;fill:#42affa;fill-opacity:1;stroke-width:0.26458332px"
         id="path6084"
         inkscape:connector-curvature="0" />
      <path
         d="m 385.46847,87.99097 q 0.63052,0.439095 0.70544,1.0871 0.0838,0.646423 -0.38437,1.318632 -0.48627,0.698263 -1.11278,0.842318 -0.62651,0.144055 -1.26224,-0.298669 -0.63573,-0.442724 -0.72154,-1.075096 -0.0822,-0.637584 0.4041,-1.335847 0.30845,-0.442928 0.6934,-0.66235 0.39379,-0.221003 0.82303,-0.19291 0.43808,0.02651 0.85496,0.316822 z m -0.42458,0.609678 q -0.25534,-0.177816 -0.52034,-0.05284 -0.26138,0.119761 -0.57709,0.573111 -0.31935,0.458561 -0.34465,0.750463 -0.0217,0.28669 0.23366,0.464505 0.25533,0.177816 0.52034,0.05284 0.26501,-0.124972 0.58435,-0.583533 0.31208,-0.44814 0.33376,-0.73483 0.0253,-0.291901 -0.23003,-0.469716 z"
         style="font-size:6.3499999px;fill:#42affa;fill-opacity:1;stroke-width:0.26458332px"
         id="path6086"
         inkscape:connector-curvature="0" />
      <path
         d="m 387.22874,92.756273 q 0.15112,0.115983 0.3347,0.168822 0.18744,0.0478 0.43369,0.06069 l -0.034,0.77437 q -0.31514,0.01429 -0.64046,-0.08331 -0.32533,-0.09759 -0.62254,-0.325694 -0.42818,-0.32862 -0.60519,-0.744628 -0.17197,-0.412143 -0.0946,-0.857083 0.0773,-0.444939 0.39822,-0.863046 0.32088,-0.418107 0.74345,-0.614092 0.42257,-0.195986 0.87794,-0.142672 0.4604,0.05718 0.88355,0.381933 0.29721,0.2281 0.46824,0.495443 0.1749,0.262306 0.24999,0.592089 l -0.70982,0.215661 q -0.13753,-0.425731 -0.44481,-0.661564 -0.59946,-0.460067 -1.23737,0.371109 -0.32088,0.418107 -0.3039,0.719304 0.0208,0.29616 0.30294,0.512662 z"
         style="font-size:6.3499999px;fill:#42affa;fill-opacity:1;stroke-width:0.26458332px"
         id="path6088"
         inkscape:connector-curvature="0" />
      <path
         d="m 389.16554,95.19165 -0.76682,-0.64699 3.0384,-3.601147 0.83643,0.564484 z m 2.042,-0.736353 -0.29481,2.210508 -0.87359,-0.737078 0.34713,-2.124817 1.8321,-0.448189 0.80079,0.675655 z"
         style="font-size:6.3499999px;fill:#42affa;fill-opacity:1;stroke-width:0.26458332px"
         id="path6090"
         inkscape:connector-curvature="0" />
      <path
         d="m 395.85307,94.234652 q 0.19103,0.176898 0.19998,0.410213 0.0133,0.228656 -0.15068,0.4057 -0.16827,0.181703 -0.39727,0.186001 -0.229,0.0043 -0.42002,-0.172602 -0.19102,-0.176898 -0.20895,-0.409868 -0.009,-0.233315 0.15499,-0.410359 0.16396,-0.177044 0.39296,-0.181341 0.23797,-0.0046 0.42899,0.172256 z m -2.58191,3.675886 0.63363,0.586784 -0.46598,0.503178 -2.06862,-1.915677 0.46598,-0.503179 0.69886,0.647189 1.35909,-1.467604 -0.67556,-0.625615 0.46597,-0.503178 1.4117,1.30732 z"
         style="font-size:6.3499999px;fill:#42affa;fill-opacity:1;stroke-width:0.26458332px"
         id="path6092"
         inkscape:connector-curvature="0" />
      <path
         d="m 396.47814,97.252391 0.61483,0.624414 -0.227,0.321542 q 0.34138,-0.01532 0.6011,0.0765 0.2687,0.09188 0.49147,0.318121 0.30741,0.312207 0.28667,0.671267 -0.0163,0.363586 -0.35564,0.69773 l -1.76464,1.737545 -0.70393,-0.71491 1.5565,-1.532602 q 0.22624,-0.222762 0.2632,-0.357184 0.037,-0.134422 -0.0922,-0.265639 -0.10692,-0.108594 -0.28179,-0.141379 -0.16589,-0.03272 -0.40855,-0.0077 l -1.67868,1.652904 -0.70393,-0.714913 z"
         style="font-size:6.3499999px;fill:#42affa;fill-opacity:1;stroke-width:0.26458332px"
         id="path6094"
         inkscape:connector-curvature="0" />
      <path
         d="m 401.25007,102.62478 q -0.31983,-0.1566 -0.74831,-0.63381 0.11193,0.34326 0.0668,0.59714 -0.0409,0.25861 -0.27713,0.47073 -0.24097,0.21636 -0.55348,0.258 -0.30778,0.0374 -0.63282,-0.10599 -0.32503,-0.14339 -0.60927,-0.45996 -0.14,-0.15592 -0.23468,-0.31839 -0.0528,-0.0208 -0.11658,-0.006 -0.0548,0.015 -0.0973,0.0532 -0.0709,0.0636 -0.0667,0.15379 0.0131,0.0906 0.16159,0.25601 l 0.37334,0.41578 q 0.25454,0.2835 0.3552,0.58569 0.10065,0.30219 0.0413,0.5688 -0.0593,0.2666 -0.2672,0.45327 -0.39217,0.35212 -0.91921,0.20236 -0.52752,-0.1408 -1.11722,-0.79756 -0.42,-0.46776 -0.56259,-0.82617 -0.14308,-0.34944 -0.0658,-0.61508 0.0815,-0.26092 0.34608,-0.49849 l 0.59394,0.66148 q -0.11812,0.10606 -0.14609,0.20798 -0.0237,0.10664 0.0535,0.25918 0.0772,0.15255 0.28935,0.38879 0.29697,0.33074 0.48287,0.38571 0.19014,0.0597 0.32716,-0.0633 0.1134,-0.10181 0.0994,-0.25995 -0.0145,-0.14916 -0.17567,-0.32871 l -0.35636,-0.39689 q -0.34788,-0.38744 -0.3848,-0.70419 -0.0322,-0.32099 0.18516,-0.51614 0.14174,-0.12727 0.32822,-0.1667 0.19545,-0.0389 0.39929,0.017 -0.0846,-0.35079 -0.008,-0.60746 0.0815,-0.26092 0.32718,-0.48152 0.27877,-0.25031 0.61394,-0.29523 0.33516,-0.0449 0.67293,0.11265 0.34248,0.15333 0.63521,0.47934 0.32994,0.38648 0.64784,0.57895 0.32263,0.18823 0.73406,0.31378 z m -1.45623,-1.09908 q -0.16121,-0.17955 -0.36794,-0.18167 -0.20249,0.003 -0.39621,0.17653 -0.20317,0.18242 -0.22323,0.38819 -0.0201,0.20576 0.1369,0.38058 0.16546,0.18427 0.36322,0.18592 0.20249,-0.003 0.41983,-0.19775 0.41106,-0.36909 0.0674,-0.7518 z"
         style="font-size:6.3499999px;fill:#42affa;fill-opacity:1;stroke-width:0.26458332px"
         id="path6096"
         inkscape:connector-curvature="0" />
    </g>
  </g>
  <g
     inkscape:groupmode="layer"
     id="layer6"
     inkscape:label="QuestionMarks1"
     sodipodi:insensitive="true"
     style="display:inline">
    <g
       id="g5181">
      <text
         id="text5155-3"
         y="108.76572"
         x="95.865089"
         style="font-style:normal;font-variant:normal;font-weight:bold;font-stretch:normal;font-size:10.58333302px;line-height:125%;font-family:'Fira Code';-inkscape-font-specification:'Fira Code, Bold';text-align:start;letter-spacing:0px;word-spacing:0px;writing-mode:lr-tb;text-anchor:start;fill:#550000;fill-opacity:1;stroke:none;stroke-width:0.26458332px;stroke-linecap:butt;stroke-linejoin:miter;stroke-opacity:1"
         xml:space="preserve"><tspan
           style="font-size:50.79999924px;fill:#550000;stroke-width:0.26458332px"
           y="108.76572"
           x="95.865089"
           id="tspan5153-6"
           sodipodi:role="line">?</tspan></text>
      <text
         id="text5155"
         y="107.70738"
         x="94.806755"
         style="font-style:normal;font-variant:normal;font-weight:bold;font-stretch:normal;font-size:10.58333302px;line-height:125%;font-family:'Fira Code';-inkscape-font-specification:'Fira Code, Bold';text-align:start;letter-spacing:0px;word-spacing:0px;writing-mode:lr-tb;text-anchor:start;fill:#000000;fill-opacity:1;stroke:none;stroke-width:0.26458332px;stroke-linecap:butt;stroke-linejoin:miter;stroke-opacity:1"
         xml:space="preserve"><tspan
           style="font-size:50.79999924px;fill:#ff0000;stroke-width:0.26458332px"
           y="107.70738"
           x="94.806755"
           id="tspan5153"
           sodipodi:role="line">?</tspan></text>
    </g>
  </g>
  <g
     style="display:none;opacity:1"
     inkscape:label="Answers1"
     id="g5251"
     inkscape:groupmode="layer"
     sodipodi:insensitive="true">
    <text
       id="text5229"
       y="88.572243"
       x="92.042778"
       style="font-style:normal;font-variant:normal;font-weight:bold;font-stretch:normal;font-size:10.58333302px;line-height:125%;font-family:'Fira Code';-inkscape-font-specification:'Fira Code, Bold';text-align:start;letter-spacing:0px;word-spacing:0px;writing-mode:lr-tb;text-anchor:start;display:inline;fill:#000000;fill-opacity:1;stroke:none;stroke-width:0.26458332px;stroke-linecap:butt;stroke-linejoin:miter;stroke-opacity:1"
       xml:space="preserve"><tspan
         style="font-style:normal;font-variant:normal;font-weight:500;font-stretch:normal;font-size:16.93333244px;font-family:'Fira Code';-inkscape-font-specification:'Fira Code Medium';fill:#ffffff;stroke-width:0.26458332px"
         y="88.572243"
         x="92.042778"
         id="tspan5227"
         sodipodi:role="line">fn</tspan></text>
  </g>
  <g
     inkscape:label="QuestionMarks2"
     id="g5193"
     inkscape:groupmode="layer"
     sodipodi:insensitive="true"
     style="display:none">
    <g
       id="g5191"
       transform="translate(51.882439,72.038207)">
      <text
         xml:space="preserve"
         style="font-style:normal;font-variant:normal;font-weight:bold;font-stretch:normal;font-size:10.58333302px;line-height:125%;font-family:'Fira Code';-inkscape-font-specification:'Fira Code, Bold';text-align:start;letter-spacing:0px;word-spacing:0px;writing-mode:lr-tb;text-anchor:start;fill:#550000;fill-opacity:1;stroke:none;stroke-width:0.26458332px;stroke-linecap:butt;stroke-linejoin:miter;stroke-opacity:1"
         x="95.865089"
         y="108.76572"
         id="text5185"><tspan
           sodipodi:role="line"
           id="tspan5183"
           x="95.865089"
           y="108.76572"
           style="font-size:50.79999924px;fill:#550000;stroke-width:0.26458332px">?</tspan></text>
      <text
         xml:space="preserve"
         style="font-style:normal;font-variant:normal;font-weight:bold;font-stretch:normal;font-size:10.58333302px;line-height:125%;font-family:'Fira Code';-inkscape-font-specification:'Fira Code, Bold';text-align:start;letter-spacing:0px;word-spacing:0px;writing-mode:lr-tb;text-anchor:start;fill:#000000;fill-opacity:1;stroke:none;stroke-width:0.26458332px;stroke-linecap:butt;stroke-linejoin:miter;stroke-opacity:1"
         x="94.806755"
         y="107.70738"
         id="text5189"><tspan
           sodipodi:role="line"
           id="tspan5187"
           x="94.806755"
           y="107.70738"
           style="font-size:50.79999924px;fill:#ff0000;stroke-width:0.26458332px">?</tspan></text>
    </g>
    <g
       transform="translate(85.10213,25.754592)"
       id="g5203">
      <text
         id="text5197"
         y="108.76572"
         x="95.865089"
         style="font-style:normal;font-variant:normal;font-weight:bold;font-stretch:normal;font-size:10.58333302px;line-height:125%;font-family:'Fira Code';-inkscape-font-specification:'Fira Code, Bold';text-align:start;letter-spacing:0px;word-spacing:0px;writing-mode:lr-tb;text-anchor:start;fill:#550000;fill-opacity:1;stroke:none;stroke-width:0.26458332px;stroke-linecap:butt;stroke-linejoin:miter;stroke-opacity:1"
         xml:space="preserve"><tspan
           style="font-size:50.79999924px;fill:#550000;stroke-width:0.26458332px"
           y="108.76572"
           x="95.865089"
           id="tspan5195"
           sodipodi:role="line">?</tspan></text>
      <text
         id="text5201"
         y="107.70738"
         x="94.806755"
         style="font-style:normal;font-variant:normal;font-weight:bold;font-stretch:normal;font-size:10.58333302px;line-height:125%;font-family:'Fira Code';-inkscape-font-specification:'Fira Code, Bold';text-align:start;letter-spacing:0px;word-spacing:0px;writing-mode:lr-tb;text-anchor:start;fill:#000000;fill-opacity:1;stroke:none;stroke-width:0.26458332px;stroke-linecap:butt;stroke-linejoin:miter;stroke-opacity:1"
         xml:space="preserve"><tspan
           style="font-size:50.79999924px;fill:#ff0000;stroke-width:0.26458332px"
           y="107.70738"
           x="94.806755"
           id="tspan5199"
           sodipodi:role="line">?</tspan></text>
    </g>
  </g>
  <g
     inkscape:groupmode="layer"
     id="g5277"
     inkscape:label="Answers2"
     style="display:none;opacity:1"
     sodipodi:insensitive="true">
    <text
       xml:space="preserve"
       style="font-style:normal;font-variant:normal;font-weight:bold;font-stretch:normal;font-size:10.58333302px;line-height:125%;font-family:'Fira Code';-inkscape-font-specification:'Fira Code, Bold';text-align:start;letter-spacing:0px;word-spacing:0px;writing-mode:lr-tb;text-anchor:start;display:inline;fill:#000000;fill-opacity:1;stroke:none;stroke-width:0.26458332px;stroke-linecap:butt;stroke-linejoin:miter;stroke-opacity:1"
       x="148.83441"
       y="126.60096"
       id="text5259"><tspan
         sodipodi:role="line"
         id="tspan5257"
         x="148.83441"
         y="126.60096"
         style="font-style:normal;font-variant:normal;font-weight:500;font-stretch:normal;font-size:16.93333244px;font-family:'Fira Code';-inkscape-font-specification:'Fira Code Medium';fill:#ffffff;stroke-width:0.26458332px">lazy-seq</tspan></text>
    <text
       xml:space="preserve"
       style="font-style:normal;font-variant:normal;font-weight:bold;font-stretch:normal;font-size:10.58333302px;line-height:125%;font-family:'Fira Code';-inkscape-font-specification:'Fira Code, Bold';text-align:start;letter-spacing:0px;word-spacing:0px;writing-mode:lr-tb;text-anchor:start;display:inline;fill:#000000;fill-opacity:1;stroke:none;stroke-width:0.26458332px;stroke-linecap:butt;stroke-linejoin:miter;stroke-opacity:1"
       x="138.63431"
       y="176.15968"
       id="text5263"><tspan
         sodipodi:role="line"
         id="tspan5261"
         x="138.63431"
         y="176.15968"
         style="font-style:normal;font-variant:normal;font-weight:500;font-stretch:normal;font-size:16.93333244px;font-family:'Fira Code';-inkscape-font-specification:'Fira Code Medium';fill:#ffffff;stroke-width:0.26458332px">delay</tspan></text>
  </g>
  <g
     inkscape:groupmode="layer"
     id="g5225"
     inkscape:label="QuestionMarks3"
     sodipodi:insensitive="true"
     style="display:none">
    <g
       transform="translate(250.82733,30.233652)"
       id="g5213">
      <text
         id="text5207"
         y="108.76572"
         x="95.865089"
         style="font-style:normal;font-variant:normal;font-weight:bold;font-stretch:normal;font-size:10.58333302px;line-height:125%;font-family:'Fira Code';-inkscape-font-specification:'Fira Code, Bold';text-align:start;letter-spacing:0px;word-spacing:0px;writing-mode:lr-tb;text-anchor:start;fill:#550000;fill-opacity:1;stroke:none;stroke-width:0.26458332px;stroke-linecap:butt;stroke-linejoin:miter;stroke-opacity:1"
         xml:space="preserve"><tspan
           style="font-size:50.79999924px;fill:#550000;stroke-width:0.26458332px"
           y="108.76572"
           x="95.865089"
           id="tspan5205"
           sodipodi:role="line">?</tspan></text>
      <text
         id="text5211"
         y="107.70738"
         x="94.806755"
         style="font-style:normal;font-variant:normal;font-weight:bold;font-stretch:normal;font-size:10.58333302px;line-height:125%;font-family:'Fira Code';-inkscape-font-specification:'Fira Code, Bold';text-align:start;letter-spacing:0px;word-spacing:0px;writing-mode:lr-tb;text-anchor:start;fill:#000000;fill-opacity:1;stroke:none;stroke-width:0.26458332px;stroke-linecap:butt;stroke-linejoin:miter;stroke-opacity:1"
         xml:space="preserve"><tspan
           style="font-size:50.79999924px;fill:#ff0000;stroke-width:0.26458332px"
           y="107.70738"
           x="94.806755"
           id="tspan5209"
           sodipodi:role="line">?</tspan></text>
    </g>
    <g
       id="g5223"
       transform="translate(166.09846,66.066127)">
      <text
         xml:space="preserve"
         style="font-style:normal;font-variant:normal;font-weight:bold;font-stretch:normal;font-size:10.58333302px;line-height:125%;font-family:'Fira Code';-inkscape-font-specification:'Fira Code, Bold';text-align:start;letter-spacing:0px;word-spacing:0px;writing-mode:lr-tb;text-anchor:start;fill:#550000;fill-opacity:1;stroke:none;stroke-width:0.26458332px;stroke-linecap:butt;stroke-linejoin:miter;stroke-opacity:1"
         x="95.865089"
         y="108.76572"
         id="text5217"><tspan
           sodipodi:role="line"
           id="tspan5215"
           x="95.865089"
           y="108.76572"
           style="font-size:50.79999924px;fill:#550000;stroke-width:0.26458332px">?</tspan></text>
      <text
         xml:space="preserve"
         style="font-style:normal;font-variant:normal;font-weight:bold;font-stretch:normal;font-size:10.58333302px;line-height:125%;font-family:'Fira Code';-inkscape-font-specification:'Fira Code, Bold';text-align:start;letter-spacing:0px;word-spacing:0px;writing-mode:lr-tb;text-anchor:start;fill:#000000;fill-opacity:1;stroke:none;stroke-width:0.26458332px;stroke-linecap:butt;stroke-linejoin:miter;stroke-opacity:1"
         x="94.806755"
         y="107.70738"
         id="text5221"><tspan
           sodipodi:role="line"
           id="tspan5219"
           x="94.806755"
           y="107.70738"
           style="font-size:50.79999924px;fill:#ff0000;stroke-width:0.26458332px">?</tspan></text>
    </g>
  </g>
  <g
     style="display:none;opacity:1"
     inkscape:label="Answers3"
     id="g5303"
     inkscape:groupmode="layer"
     sodipodi:insensitive="true">
    <text
       id="text5293"
       y="167.31342"
       x="246.56862"
       style="font-style:normal;font-variant:normal;font-weight:bold;font-stretch:normal;font-size:10.58333302px;line-height:125%;font-family:'Fira Code';-inkscape-font-specification:'Fira Code, Bold';text-align:start;letter-spacing:0px;word-spacing:0px;writing-mode:lr-tb;text-anchor:start;display:inline;fill:#000000;fill-opacity:1;stroke:none;stroke-width:0.26458332px;stroke-linecap:butt;stroke-linejoin:miter;stroke-opacity:1"
       xml:space="preserve"><tspan
         style="font-style:normal;font-variant:normal;font-weight:500;font-stretch:normal;font-size:16.93333244px;font-family:'Fira Code';-inkscape-font-specification:'Fira Code Medium';fill:#ffffff;stroke-width:0.26458332px"
         y="167.31342"
         x="246.56862"
         id="tspan5291"
         sodipodi:role="line">future</tspan></text>
    <text
       id="text5297"
       y="132.51682"
       x="344.32352"
       style="font-style:normal;font-variant:normal;font-weight:bold;font-stretch:normal;font-size:10.58333302px;line-height:125%;font-family:'Fira Code';-inkscape-font-specification:'Fira Code, Bold';text-align:start;letter-spacing:0px;word-spacing:0px;writing-mode:lr-tb;text-anchor:start;display:inline;fill:#000000;fill-opacity:1;stroke:none;stroke-width:0.26458332px;stroke-linecap:butt;stroke-linejoin:miter;stroke-opacity:1"
       xml:space="preserve"><tspan
         style="font-style:normal;font-variant:normal;font-weight:500;font-stretch:normal;font-size:16.93333244px;font-family:'Fira Code';-inkscape-font-specification:'Fira Code Medium';fill:#ffffff;stroke-width:0.26458332px"
         y="132.51682"
         x="344.32352"
         id="tspan5295"
         sodipodi:role="line">agent</tspan></text>
  </g>
</svg>
